<?xml version="1.0" standalone="no"?>
<!DOCTYPE svg PUBLIC "-//W3C//DTD SVG 20010904//EN"
 "http://www.w3.org/TR/2001/REC-SVG-20010904/DTD/svg10.dtd">
<svg version="1.0" xmlns="http://www.w3.org/2000/svg"
 width="30.000000pt" height="30.000000pt" viewBox="0 0 300.000000 300.000000"
 preserveAspectRatio="xMidYMid meet">
<g transform="translate(0.000000,300.000000) scale(0.100000,-0.100000)"
fill="#ffffff" stroke="none">
<path d="M1820 2406 c-40 -91 -43 -116 -10 -116 15 0 27 15 46 58 32 70 36
115 11 120 -13 3 -24 -12 -47 -62z"/>
<path d="M995 2351 c-3 -5 10 -44 30 -86 26 -58 39 -76 52 -73 28 5 26 28 -7
101 -22 49 -35 67 -50 67 -10 0 -21 -4 -25 -9z"/>
<path d="M1630 1905 c-135 -30 -269 -59 -297 -65 l-53 -11 0 -275 0 -275 -29
22 c-43 32 -107 35 -155 7 -54 -32 -78 -68 -83 -125 -13 -158 204 -227 287
-91 18 30 20 51 20 260 0 207 1 227 18 232 9 2 125 28 257 56 132 28 248 53
258 56 16 5 17 -7 17 -150 0 -86 -1 -156 -3 -156 -1 0 -20 9 -42 20 -52 27
-104 26 -146 -3 -76 -51 -98 -130 -59 -207 39 -76 150 -104 221 -56 69 47 70
52 67 453 -3 309 -5 358 -18 360 -8 1 -125 -23 -260 -52z m230 -77 l0 -83
-248 -53 c-136 -29 -257 -55 -269 -58 -23 -6 -23 -5 -23 77 l0 84 263 56 c144
31 265 57 270 58 4 0 7 -36 7 -81z m-57 -459 c62 -32 77 -114 31 -168 -76 -90
-221 -7 -184 105 21 63 94 93 153 63z m-558 -121 c27 -32 33 -84 14 -121 -33
-64 -116 -77 -171 -28 -28 25 -33 36 -33 75 0 56 34 96 92 105 51 9 69 4 98
-31z"/>
<path d="M2318 1917 c-57 -32 -75 -61 -44 -73 14 -5 125 51 138 70 8 12 -10
36 -26 35 -6 0 -37 -15 -68 -32z"/>
<path d="M550 1808 c0 -19 12 -28 74 -50 76 -29 101 -34 110 -20 10 16 -11 32
-81 62 -87 36 -103 38 -103 8z"/>
<path d="M2320 1095 c-18 -21 -3 -34 78 -68 72 -30 88 -33 95 -14 8 22 -5 34
-73 62 -36 15 -70 29 -76 31 -6 3 -17 -2 -24 -11z"/>
<path d="M635 1032 c-69 -36 -92 -66 -61 -78 8 -3 48 12 88 33 53 28 73 43 73
58 0 31 -24 28 -100 -13z"/>
<path d="M1066 610 c-37 -88 -41 -120 -13 -120 20 0 28 13 66 102 34 80 35
108 3 108 -13 0 -28 -24 -56 -90z"/>
<path d="M1775 668 c-3 -8 8 -44 25 -81 22 -48 35 -67 49 -67 31 0 30 21 -3
90 -30 63 -60 87 -71 58z"/>
</g>
</svg>
